<svg width="24.000000" height="24.000000" viewBox="0 0 24 24" fill="none" xmlns="http://www.w3.org/2000/svg" xmlns:xlink="http://www.w3.org/1999/xlink">
	<desc>
			Created with Pixso.
	</desc>
	<defs>
		<clipPath id="clip5_22">
			<rect id="instagram" width="24.000000" height="24.000000" fill="white" fill-opacity="0"/>
		</clipPath>
	</defs>
	<g clip-path="url(#clip5_22)">
		<path id="Vector" d="M7.80005 2.00003L16.2 2.00003C19.4033 2.00003 22 4.59677 22 7.80002L22 16.2C22 19.4033 19.4033 22 16.2 22L7.80005 22C4.59668 22 2 19.4033 2 16.2L2 7.80002C2 4.59677 4.59668 2.00003 7.80005 2.00003ZM7.6001 4C5.61182 4 4 5.61179 4 7.60001L4 16.4C4 18.3882 5.61182 20 7.6001 20L16.3999 20C18.3882 20 20 18.3882 20 16.4L20 7.60001C20 5.61179 18.3882 4 16.3999 4L7.6001 4ZM17.25 5.5C17.9404 5.5 18.5 6.05966 18.5 6.75C18.5 7.44037 17.9404 8 17.25 8C16.5596 8 16 7.44037 16 6.75C16 6.05966 16.5596 5.5 17.25 5.5ZM12 7C14.7615 7 17 9.23859 17 12C17 14.7614 14.7615 17 12 17C9.23853 17 7 14.7614 7 12C7 9.23859 9.23853 7 12 7ZM12 9C10.343 9 9 10.3432 9 12C9 13.6569 10.343 15 12 15C13.657 15 15 13.6569 15 12C15 10.3432 13.657 9 12 9Z" fill="#FFFFFF" fill-opacity="1.000000" fill-rule="nonzero"/>
	</g>
</svg>
