<svg width="503" height="191" viewBox="0 0 503 191" fill="none" xmlns="http://www.w3.org/2000/svg">
<mask id="mask0_1103_45" style="mask-type:luminance" maskUnits="userSpaceOnUse" x="0" y="0" width="191" height="191">
<path d="M191 0H0V191H191V0Z" fill="white"/>
</mask>
<g mask="url(#mask0_1103_45)">
<path d="M18.2701 122.033V129.581C18.2708 131.184 18.705 132.763 19.5357 134.184C20.3665 135.606 21.5691 136.826 23.0413 137.742L56.5354 107.825L47.2496 99.5311C47.0011 99.3096 46.7062 99.1336 46.3816 99.0134C46.0571 98.8933 45.7092 98.8314 45.3579 98.8314C45.0066 98.8314 44.6587 98.8933 44.3342 99.0134C44.0096 99.1336 43.7147 99.3096 43.4663 99.5311L18.2701 122.033Z" fill="#F58809"/>
<path d="M45.355 89.7381C46.4778 89.7356 47.5901 89.9313 48.6274 90.3159C49.6647 90.6997 50.6064 91.2637 51.3979 91.9745L62.836 102.191L86.3203 81.2149C88.7562 79.0427 92.0576 77.8228 95.4996 77.8228C98.9415 77.8228 102.243 79.0427 104.679 81.2149L137.333 110.381L147.425 101.367C149.029 99.9372 151.202 99.1345 153.468 99.1345C155.734 99.1345 157.907 99.9372 159.51 101.367L172.73 113.184V61.4228C172.73 59.675 172.215 57.958 171.235 56.4444C170.257 54.9308 168.85 53.6739 167.155 52.8L101.073 18.7223C99.3788 17.8483 97.4555 17.3881 95.4986 17.3881C93.5414 17.3881 91.6188 17.8483 89.9237 18.7223L23.841 52.8C22.1463 53.6739 20.739 54.9308 19.7604 56.4444C18.7818 57.958 18.2666 59.675 18.2662 61.4228V110.768L39.3083 91.9737C40.1004 91.262 41.0429 90.6979 42.0807 90.315C43.1187 89.9313 44.2317 89.7347 45.355 89.7381Z" fill="url(#paint0_linear_1103_45)"/>
<path d="M143.637 116.017L167.955 137.742C169.427 136.825 170.63 135.604 171.46 134.183C172.291 132.762 172.724 131.183 172.725 129.581V124.447L155.352 108.929C154.85 108.481 154.17 108.23 153.46 108.23C152.75 108.23 152.07 108.481 151.568 108.929L143.637 116.017Z" fill="#FF9B10"/>
<path d="M137.331 121.647L131.026 116.017L98.3725 86.8518C97.6103 86.1719 96.578 85.7905 95.501 85.7905C94.4242 85.7905 93.3914 86.1719 92.6295 86.8518L69.1451 107.828L62.8397 113.46L31.0027 141.892L89.9228 172.279C91.6177 173.152 93.5405 173.613 95.4976 173.613C97.4546 173.613 99.3779 173.152 101.072 172.279L159.992 141.892L137.331 121.647Z" fill="#EB770C"/>
</g>
<path d="M200.675 119L199.331 111.896H189.219L187.875 119H179.171L187.811 74.2H201.059L209.251 119H200.675ZM194.147 82.52L191.651 97.432L190.243 105.048H198.243L196.771 97.432L194.275 82.52H194.147ZM221.106 74.2V119H212.658V74.2H221.106ZM228.516 104.728V93.016H224.1V86.296H228.516V77.4H237.028V86.296H242.276V93.016H237.028V106.776C237.028 109.379 237.476 111.213 238.372 112.28H242.276V119H233.188C230.926 116.909 229.561 114.648 229.092 112.216C228.708 110.168 228.516 107.672 228.516 104.728ZM245.716 101.016V86.296H254.228V101.08C254.228 104.792 254.975 107.885 256.468 110.36H260.244C261.652 107.928 262.356 104.835 262.356 101.08V86.296H270.868V100.568C270.868 103.768 270.442 106.584 269.588 109.016C268.778 111.448 267.434 114.2 265.556 117.272L261.268 124.248C260.5 125.571 259.69 126.552 258.836 127.192C257.983 127.832 256.874 128.301 255.508 128.6H245.396V121.88H252.308C253.204 121.624 253.951 121.176 254.548 120.536C255.146 119.896 255.764 118.979 256.404 117.784L256.788 117.08H252.372C250.324 115.416 248.703 113.176 247.508 110.36C246.314 107.501 245.716 104.387 245.716 101.016ZM290.366 86.296H297.15C299.028 88.6853 300.308 91.0747 300.99 93.464C301.673 95.8533 302.014 98.84 302.014 102.424V119H293.502V101.784C293.502 97.7307 292.948 94.808 291.838 93.016H284.67V119H276.158V86.296H282.814L283.966 88.6C284.905 87.7467 285.78 87.1493 286.59 86.808C287.444 86.4667 288.702 86.296 290.366 86.296ZM322.067 93.016H317.267C316.627 93.784 316.094 94.8507 315.667 96.216C315.283 97.5813 315.091 98.904 315.091 100.184H324.243C324.329 98.904 324.158 97.5813 323.731 96.216C323.305 94.808 322.75 93.7413 322.067 93.016ZM330.771 112.28V119H314.515C311.529 116.995 309.417 114.52 308.179 111.576C306.985 108.589 306.387 105.581 306.387 102.552C306.387 95.5547 309.033 90.136 314.323 86.296H324.691C327.55 88.3867 329.491 90.6053 330.515 92.952C331.539 95.2987 332.051 97.6667 332.051 100.056C332.051 102.445 331.859 104.493 331.475 106.2H315.539C315.667 107.181 316.03 108.312 316.627 109.592C317.267 110.829 317.95 111.725 318.675 112.28H330.771ZM350.554 86.296H355.098L356.698 88.536C357.594 87.7253 358.447 87.1493 359.258 86.808C360.111 86.4667 361.37 86.296 363.034 86.296H370.138C372.015 88.6853 373.295 91.0747 373.978 93.464C374.66 95.8533 375.002 98.84 375.002 102.424V119H366.49V101.784C366.49 97.8587 365.892 94.936 364.698 93.016H358.554C359.492 94.8507 359.962 97.3467 359.962 100.504V119H351.45V101.784C351.45 97.7307 350.895 94.808 349.786 93.016H344.858V119H336.346V86.296H343.002L344.154 88.6C345.092 87.7467 345.967 87.1493 346.778 86.808C347.631 86.4667 348.89 86.296 350.554 86.296ZM395.005 93.016H390.205C389.565 93.784 389.031 94.8507 388.605 96.216C388.221 97.5813 388.029 98.904 388.029 100.184H397.181C397.266 98.904 397.095 97.5813 396.669 96.216C396.242 94.808 395.687 93.7413 395.005 93.016ZM403.709 112.28V119H387.453C384.466 116.995 382.354 114.52 381.117 111.576C379.922 108.589 379.325 105.581 379.325 102.552C379.325 95.5547 381.97 90.136 387.261 86.296H397.629C400.487 88.3867 402.429 90.6053 403.453 92.952C404.477 95.2987 404.989 97.6667 404.989 100.056C404.989 102.445 404.797 104.493 404.413 106.2H388.477C388.605 107.181 388.967 108.312 389.565 109.592C390.205 110.829 390.887 111.725 391.613 112.28H403.709ZM417.731 74.2V119H409.283V74.2H417.731Z" fill="url(#paint1_linear_1103_45)"/>
<path d="M370.379 131L368.322 126.743L368.267 126.765L368.333 128.063V131H366.947V123.3H368.058L370.082 127.722L370.137 127.7L370.016 126.347V123.3H371.402V131H370.379ZM375.054 128.459H373.877C373.723 128.65 373.646 128.888 373.646 129.174C373.646 129.46 373.726 129.684 373.888 129.845H375.054V128.459ZM372.689 125.379H375.417C375.857 125.643 376.146 125.947 376.286 126.292C376.425 126.629 376.495 127.091 376.495 127.678V129.328C376.495 129.937 376.509 130.494 376.539 131H375.285L375.087 130.604C374.801 130.868 374.397 131 373.877 131H373.184C372.56 130.589 372.249 129.999 372.249 129.229C372.249 128.452 372.568 127.839 373.206 127.392H374.24C374.526 127.392 374.793 127.48 375.043 127.656V127.106C375.043 126.82 374.918 126.629 374.669 126.534H372.689V125.379ZM377.599 128.547V126.534H376.84V125.379H377.599V123.85H379.062V125.379H379.964V126.534H379.062V128.899C379.062 129.346 379.139 129.662 379.293 129.845H379.964V131H378.402C378.013 130.641 377.779 130.252 377.698 129.834C377.632 129.482 377.599 129.053 377.599 128.547ZM380.696 131V125.379H382.148V131H380.696ZM380.696 123.3H382.148V124.785H380.696V123.3ZM386.435 131H384.037C383.304 130.318 382.937 129.387 382.937 128.206C382.937 127.612 383.018 127.095 383.179 126.655C383.348 126.215 383.612 125.79 383.971 125.379H386.545C386.926 125.819 387.187 126.248 387.326 126.666C387.465 127.077 387.535 127.59 387.535 128.206C387.535 129.387 387.168 130.318 386.435 131ZM384.818 129.845H385.654C385.918 129.332 386.05 128.749 386.05 128.096C386.05 127.443 385.914 126.923 385.643 126.534H384.818C384.554 126.908 384.422 127.44 384.422 128.129C384.422 128.811 384.554 129.383 384.818 129.845ZM390.765 125.379H391.931C392.253 125.79 392.473 126.2 392.591 126.611C392.708 127.022 392.767 127.535 392.767 128.151V131H391.304V128.041C391.304 127.344 391.208 126.842 391.018 126.534H389.786V131H388.323V125.379H389.467L389.665 125.775C389.826 125.628 389.976 125.526 390.116 125.467C390.262 125.408 390.479 125.379 390.765 125.379ZM396.323 128.459H395.146C394.992 128.65 394.915 128.888 394.915 129.174C394.915 129.46 394.996 129.684 395.157 129.845H396.323V128.459ZM393.958 125.379H396.686C397.126 125.643 397.416 125.947 397.555 126.292C397.695 126.629 397.764 127.091 397.764 127.678V129.328C397.764 129.937 397.779 130.494 397.808 131H396.554L396.356 130.604C396.07 130.868 395.667 131 395.146 131H394.453C393.83 130.589 393.518 129.999 393.518 129.229C393.518 128.452 393.837 127.839 394.475 127.392H395.509C395.795 127.392 396.063 127.48 396.312 127.656V127.106C396.312 126.82 396.188 126.629 395.938 126.534H393.958V125.379ZM400.162 123.3V131H398.71V123.3H400.162ZM404.408 124.62V127.37H405.387C405.79 127.04 405.992 126.556 405.992 125.918C405.992 125.647 405.937 125.39 405.827 125.148C405.724 124.906 405.599 124.73 405.453 124.62H404.408ZM402.923 131V123.3H405.904C406.402 123.52 406.795 123.857 407.081 124.312C407.374 124.767 407.521 125.298 407.521 125.907C407.521 126.508 407.37 127.066 407.07 127.579C406.769 128.092 406.325 128.455 405.739 128.668H404.408V131H402.923ZM410.481 128.459H409.304C409.15 128.65 409.073 128.888 409.073 129.174C409.073 129.46 409.154 129.684 409.315 129.845H410.481V128.459ZM408.116 125.379H410.844C411.284 125.643 411.574 125.947 411.713 126.292C411.853 126.629 411.922 127.091 411.922 127.678V129.328C411.922 129.937 411.937 130.494 411.966 131H410.712L410.514 130.604C410.228 130.868 409.825 131 409.304 131H408.611C407.988 130.589 407.676 129.999 407.676 129.229C407.676 128.452 407.995 127.839 408.633 127.392H409.667C409.953 127.392 410.221 127.48 410.47 127.656V127.106C410.47 126.82 410.346 126.629 410.096 126.534H408.116V125.379ZM412.88 131V125.379H413.925L414.2 125.973C414.493 125.577 414.863 125.379 415.311 125.379H415.74V126.853H414.343V131H412.88ZM416.37 131V123.3H417.833V127.381H417.987L419.021 125.379H420.451L419.153 127.832L420.462 131H419.01L417.998 128.536H417.833V131H416.37Z" fill="#FB8800"/>
<defs>
<linearGradient id="paint0_linear_1103_45" x1="95.4981" y1="17.3881" x2="95.4981" y2="113.184" gradientUnits="userSpaceOnUse">
<stop stop-color="#E87D01"/>
<stop offset="1" stop-color="#F4921F" stop-opacity="0"/>
</linearGradient>
<linearGradient id="paint1_linear_1103_45" x1="300" y1="-44.8433" x2="300" y2="146.433" gradientUnits="userSpaceOnUse">
<stop offset="0.578807" stop-color="#F17706"/>
<stop offset="0.697222" stop-color="#F17706"/>
<stop offset="1" stop-color="#F14C06" stop-opacity="0"/>
</linearGradient>
</defs>
</svg>
