<svg width="469" height="191" viewBox="0 0 469 191" fill="none" xmlns="http://www.w3.org/2000/svg">
<mask id="mask0_1103_45" style="mask-type:luminance" maskUnits="userSpaceOnUse" x="0" y="0" width="191" height="191">
<path d="M191 0H0V191H191V0Z" fill="white"/>
</mask>
<g mask="url(#mask0_1103_45)">
<path d="M18.2701 122.033V129.581C18.2708 131.184 18.705 132.763 19.5357 134.184C20.3665 135.606 21.5691 136.826 23.0413 137.742L56.5354 107.825L47.2496 99.5311C47.0011 99.3096 46.7062 99.1336 46.3816 99.0134C46.0571 98.8933 45.7092 98.8314 45.3579 98.8314C45.0066 98.8314 44.6587 98.8933 44.3342 99.0134C44.0096 99.1336 43.7147 99.3096 43.4663 99.5311L18.2701 122.033Z" fill="#F58809"/>
<path d="M45.355 89.7381C46.4778 89.7356 47.5901 89.9313 48.6274 90.3159C49.6647 90.6997 50.6064 91.2637 51.3979 91.9745L62.836 102.191L86.3203 81.2149C88.7562 79.0427 92.0576 77.8228 95.4996 77.8228C98.9415 77.8228 102.243 79.0427 104.679 81.2149L137.333 110.381L147.425 101.367C149.029 99.9372 151.202 99.1345 153.468 99.1345C155.734 99.1345 157.907 99.9372 159.51 101.367L172.73 113.184V61.4228C172.73 59.675 172.215 57.958 171.235 56.4444C170.257 54.9308 168.85 53.6739 167.155 52.8L101.073 18.7223C99.3788 17.8483 97.4555 17.3881 95.4986 17.3881C93.5414 17.3881 91.6188 17.8483 89.9237 18.7223L23.841 52.8C22.1463 53.6739 20.739 54.9308 19.7604 56.4444C18.7818 57.958 18.2666 59.675 18.2662 61.4228V110.768L39.3083 91.9737C40.1004 91.262 41.0429 90.6979 42.0807 90.315C43.1187 89.9313 44.2317 89.7347 45.355 89.7381Z" fill="url(#paint0_linear_1103_45)"/>
<path d="M143.637 116.017L167.955 137.742C169.427 136.825 170.63 135.604 171.46 134.183C172.291 132.762 172.724 131.183 172.725 129.581V124.447L155.352 108.929C154.85 108.481 154.17 108.23 153.46 108.23C152.75 108.23 152.07 108.481 151.568 108.929L143.637 116.017Z" fill="#FF9B10"/>
<path d="M137.331 121.647L131.026 116.017L98.3725 86.8518C97.6103 86.1719 96.578 85.7905 95.501 85.7905C94.4242 85.7905 93.3914 86.1719 92.6295 86.8518L69.1451 107.828L62.8397 113.46L31.0027 141.892L89.9228 172.279C91.6177 173.152 93.5405 173.613 95.4976 173.613C97.4546 173.613 99.3779 173.152 101.072 172.279L159.992 141.892L137.331 121.647Z" fill="#EB770C"/>
</g>
<path d="M200.675 119L199.331 111.896H189.219L187.875 119H179.171L187.811 74.2H201.059L209.251 119H200.675ZM194.147 82.52L191.651 97.432L190.243 105.048H198.243L196.771 97.432L194.275 82.52H194.147ZM221.106 74.2V119H212.658V74.2H221.106ZM228.516 104.728V93.016H224.1V86.296H228.516V77.4H237.028V86.296H242.276V93.016H237.028V106.776C237.028 109.379 237.476 111.213 238.372 112.28H242.276V119H233.188C230.926 116.909 229.561 114.648 229.092 112.216C228.708 110.168 228.516 107.672 228.516 104.728ZM245.716 101.016V86.296H254.228V101.08C254.228 104.792 254.975 107.885 256.468 110.36H260.244C261.652 107.928 262.356 104.835 262.356 101.08V86.296H270.868V100.568C270.868 103.768 270.442 106.584 269.588 109.016C268.778 111.448 267.434 114.2 265.556 117.272L261.268 124.248C260.5 125.571 259.69 126.552 258.836 127.192C257.983 127.832 256.874 128.301 255.508 128.6H245.396V121.88H252.308C253.204 121.624 253.951 121.176 254.548 120.536C255.146 119.896 255.764 118.979 256.404 117.784L256.788 117.08H252.372C250.324 115.416 248.703 113.176 247.508 110.36C246.314 107.501 245.716 104.387 245.716 101.016ZM290.366 86.296H297.15C299.028 88.6853 300.308 91.0747 300.99 93.464C301.673 95.8533 302.014 98.84 302.014 102.424V119H293.502V101.784C293.502 97.7307 292.948 94.808 291.838 93.016H284.67V119H276.158V86.296H282.814L283.966 88.6C284.905 87.7467 285.78 87.1493 286.59 86.808C287.444 86.4667 288.702 86.296 290.366 86.296ZM322.067 93.016H317.267C316.627 93.784 316.094 94.8507 315.667 96.216C315.283 97.5813 315.091 98.904 315.091 100.184H324.243C324.329 98.904 324.158 97.5813 323.731 96.216C323.305 94.808 322.75 93.7413 322.067 93.016ZM330.771 112.28V119H314.515C311.529 116.995 309.417 114.52 308.179 111.576C306.985 108.589 306.387 105.581 306.387 102.552C306.387 95.5547 309.033 90.136 314.323 86.296H324.691C327.55 88.3867 329.491 90.6053 330.515 92.952C331.539 95.2987 332.051 97.6667 332.051 100.056C332.051 102.445 331.859 104.493 331.475 106.2H315.539C315.667 107.181 316.03 108.312 316.627 109.592C317.267 110.829 317.95 111.725 318.675 112.28H330.771ZM350.554 86.296H355.098L356.698 88.536C357.594 87.7253 358.447 87.1493 359.258 86.808C360.111 86.4667 361.37 86.296 363.034 86.296H370.138C372.015 88.6853 373.295 91.0747 373.978 93.464C374.66 95.8533 375.002 98.84 375.002 102.424V119H366.49V101.784C366.49 97.8587 365.892 94.936 364.698 93.016H358.554C359.492 94.8507 359.962 97.3467 359.962 100.504V119H351.45V101.784C351.45 97.7307 350.895 94.808 349.786 93.016H344.858V119H336.346V86.296H343.002L344.154 88.6C345.092 87.7467 345.967 87.1493 346.778 86.808C347.631 86.4667 348.89 86.296 350.554 86.296ZM395.005 93.016H390.205C389.565 93.784 389.031 94.8507 388.605 96.216C388.221 97.5813 388.029 98.904 388.029 100.184H397.181C397.266 98.904 397.095 97.5813 396.669 96.216C396.242 94.808 395.687 93.7413 395.005 93.016ZM403.709 112.28V119H387.453C384.466 116.995 382.354 114.52 381.117 111.576C379.922 108.589 379.325 105.581 379.325 102.552C379.325 95.5547 381.97 90.136 387.261 86.296H397.629C400.487 88.3867 402.429 90.6053 403.453 92.952C404.477 95.2987 404.989 97.6667 404.989 100.056C404.989 102.445 404.797 104.493 404.413 106.2H388.477C388.605 107.181 388.967 108.312 389.565 109.592C390.205 110.829 390.887 111.725 391.613 112.28H403.709ZM417.731 74.2V119H409.283V74.2H417.731Z" fill="url(#paint1_linear_1103_45)"/>
<path d="M309.054 145L304.566 135.712L304.446 135.76L304.59 138.592V145H301.566V128.2H303.99L308.406 137.848L308.526 137.8L308.262 134.848V128.2H311.286V145H309.054ZM319.254 139.456H316.686C316.35 139.872 316.182 140.392 316.182 141.016C316.182 141.64 316.358 142.128 316.71 142.48H319.254V139.456ZM314.094 132.736H320.046C321.006 133.312 321.638 133.976 321.942 134.728C322.246 135.464 322.398 136.472 322.398 137.752V141.352C322.398 142.68 322.43 143.896 322.494 145H319.758L319.326 144.136C318.702 144.712 317.822 145 316.686 145H315.174C313.814 144.104 313.134 142.816 313.134 141.136C313.134 139.44 313.83 138.104 315.222 137.128H317.478C318.102 137.128 318.686 137.32 319.23 137.704V136.504C319.23 135.88 318.958 135.464 318.414 135.256H314.094V132.736ZM324.807 139.648V135.256H323.151V132.736H324.807V129.4H327.999V132.736H329.967V135.256H327.999V140.416C327.999 141.392 328.167 142.08 328.503 142.48H329.967V145H326.559C325.711 144.216 325.199 143.368 325.023 142.456C324.879 141.688 324.807 140.752 324.807 139.648ZM331.563 145V132.736H334.731V145H331.563ZM331.563 128.2H334.731V131.44H331.563V128.2ZM344.086 145H338.854C337.254 143.512 336.454 141.48 336.454 138.904C336.454 137.608 336.63 136.48 336.982 135.52C337.35 134.56 337.926 133.632 338.71 132.736H344.326C345.158 133.696 345.726 134.632 346.03 135.544C346.334 136.44 346.486 137.56 346.486 138.904C346.486 141.48 345.686 143.512 344.086 145ZM340.558 142.48H342.382C342.958 141.36 343.246 140.088 343.246 138.664C343.246 137.24 342.95 136.104 342.358 135.256H340.558C339.982 136.072 339.694 137.232 339.694 138.736C339.694 140.224 339.982 141.472 340.558 142.48ZM353.532 132.736H356.076C356.78 133.632 357.26 134.528 357.516 135.424C357.772 136.32 357.9 137.44 357.9 138.784V145H354.708V138.544C354.708 137.024 354.5 135.928 354.084 135.256H351.396V145H348.204V132.736H350.7L351.132 133.6C351.484 133.28 351.812 133.056 352.116 132.928C352.436 132.8 352.908 132.736 353.532 132.736ZM365.66 139.456H363.092C362.756 139.872 362.588 140.392 362.588 141.016C362.588 141.64 362.764 142.128 363.116 142.48H365.66V139.456ZM360.5 132.736H366.452C367.412 133.312 368.044 133.976 368.348 134.728C368.652 135.464 368.804 136.472 368.804 137.752V141.352C368.804 142.68 368.836 143.896 368.9 145H366.164L365.732 144.136C365.108 144.712 364.228 145 363.092 145H361.58C360.22 144.104 359.54 142.816 359.54 141.136C359.54 139.44 360.236 138.104 361.628 137.128H363.884C364.508 137.128 365.092 137.32 365.636 137.704V136.504C365.636 135.88 365.364 135.464 364.82 135.256H360.5V132.736ZM374.036 128.2V145H370.868V128.2H374.036ZM383.298 131.08V137.08H385.434C386.314 136.36 386.754 135.304 386.754 133.912C386.754 133.32 386.634 132.76 386.394 132.232C386.17 131.704 385.898 131.32 385.578 131.08H383.298ZM380.058 145V128.2H386.562C387.65 128.68 388.506 129.416 389.13 130.408C389.77 131.4 390.09 132.56 390.09 133.888C390.09 135.2 389.762 136.416 389.106 137.536C388.45 138.656 387.482 139.448 386.202 139.912H383.298V145H380.058ZM396.55 139.456H393.982C393.646 139.872 393.478 140.392 393.478 141.016C393.478 141.64 393.654 142.128 394.006 142.48H396.55V139.456ZM391.39 132.736H397.342C398.302 133.312 398.934 133.976 399.238 134.728C399.542 135.464 399.694 136.472 399.694 137.752V141.352C399.694 142.68 399.726 143.896 399.79 145H397.054L396.622 144.136C395.998 144.712 395.118 145 393.982 145H392.47C391.11 144.104 390.43 142.816 390.43 141.136C390.43 139.44 391.126 138.104 392.518 137.128H394.774C395.398 137.128 395.982 137.32 396.526 137.704V136.504C396.526 135.88 396.254 135.464 395.71 135.256H391.39V132.736ZM401.783 145V132.736H404.063L404.663 134.032C405.303 133.168 406.111 132.736 407.087 132.736H408.023V135.952H404.975V145H401.783ZM409.399 145V128.2H412.591V137.104H412.927L415.183 132.736H418.303L415.471 138.088L418.327 145H415.159L412.951 139.624H412.591V145H409.399Z" fill="#FB8800"/>
<defs>
<linearGradient id="paint0_linear_1103_45" x1="95.4981" y1="17.3881" x2="95.4981" y2="113.184" gradientUnits="userSpaceOnUse">
<stop stop-color="#E87D01"/>
<stop offset="1" stop-color="#F4921F" stop-opacity="0"/>
</linearGradient>
<linearGradient id="paint1_linear_1103_45" x1="300" y1="-44.8433" x2="300" y2="146.433" gradientUnits="userSpaceOnUse">
<stop offset="0.578807" stop-color="#F17706"/>
<stop offset="0.697222" stop-color="#F17706"/>
<stop offset="1" stop-color="#F14C06" stop-opacity="0"/>
</linearGradient>
</defs>
</svg>
