<svg width="13.838867" height="13.839691" viewBox="0 0 13.8389 13.8397" fill="none" xmlns="http://www.w3.org/2000/svg" xmlns:xlink="http://www.w3.org/1999/xlink">
	<desc>
			Created with Pixso.
	</desc>
	<defs/>
	<path id="coolicon" d="M12.6597 13.8397L7.89697 9.07636C5.77881 10.5826 2.85938 10.2141 1.18115 8.2288C-0.496582 6.24345 -0.373535 3.30351 1.46484 1.46553C3.30225 -0.373268 6.24268 -0.497013 8.22852 1.18087C10.2139 2.85876 10.5825 5.7784 9.07617 7.89719L13.8389 12.6605L12.6606 13.8389L12.6597 13.8397ZM4.99951 1.66718C3.41943 1.66682 2.05615 2.77608 1.73486 4.32339C1.41406 5.87069 2.22363 7.43076 3.67383 8.05906C5.12354 8.68736 6.81543 8.21122 7.7251 6.9189C8.63428 5.62659 8.51123 3.87329 7.43066 2.72053L7.93457 3.22053L7.36621 2.65386L7.35645 2.64386C6.73291 2.0165 5.88428 1.66479 4.99951 1.66718Z" fill="#FFFFFF" fill-opacity="1.000000" fill-rule="nonzero"/>
</svg>
