<svg width="28.406250" height="24.375000" viewBox="0 0 28.4062 24.375" fill="none" xmlns="http://www.w3.org/2000/svg" xmlns:xlink="http://www.w3.org/1999/xlink">
	<desc>
			Created with Pixso.
	</desc>
	<defs/>
	<path id="Path" d="M28.4062 2.88574C27.3501 3.375 26.2241 3.69922 25.0508 3.85693C26.2578 3.0957 27.1797 1.89941 27.6128 0.45752C26.4868 1.16602 25.2441 1.66699 23.9199 1.94629C22.8511 0.744141 21.3276 0 19.666 0C16.4419 0 13.8462 2.76367 13.8462 6.15186C13.8462 6.63916 13.8853 7.10791 13.981 7.5542C9.13965 7.30518 4.85547 4.85449 1.97803 1.12109C1.47559 2.04199 1.18066 3.0957 1.18066 4.22998C1.18066 6.35986 2.21924 8.24805 3.76758 9.34131C2.83154 9.32227 1.91406 9.03564 1.13623 8.58398C1.13623 8.60254 1.13623 8.62695 1.13623 8.65137C1.13623 11.6401 3.15479 14.1226 5.80176 14.6943C5.32812 14.8311 4.81152 14.897 4.2749 14.897C3.90234 14.897 3.52588 14.8745 3.17285 14.792C3.92725 17.2275 6.06836 19.0181 8.61426 19.0762C6.63281 20.7129 4.11719 21.6992 1.39355 21.6992C0.916016 21.6992 0.458008 21.6768 0 21.6152C2.57959 23.3721 5.63672 24.375 8.93359 24.375C19.6499 24.375 25.5088 15 25.5088 6.87354C25.5088 6.60205 25.5 6.33936 25.4873 6.07861C26.6431 5.2124 27.6143 4.13086 28.4062 2.88574Z" fill="#FFFFFF" fill-opacity="1.000000" fill-rule="nonzero"/>
</svg>
